<?xml version="1.0" encoding="utf-8"?>
<!-- Generator: Adobe Illustrator 16.0.0, SVG Export Plug-In . SVG Version: 6.00 Build 0)  -->
<!DOCTYPE svg PUBLIC "-//W3C//DTD SVG 1.1//EN" "http://www.w3.org/Graphics/SVG/1.1/DTD/svg11.dtd">
<svg version="1.1" id="Layer_1" xmlns="http://www.w3.org/2000/svg" xmlns:xlink="http://www.w3.org/1999/xlink" x="0px" y="0px"
	 width="2477.724px" height="759px" viewBox="0 0 2477.724 759" enable-background="new 0 0 2477.724 759" xml:space="preserve">
<g>
	<path fill="#002A4C" d="M478.639,230.446H374.01v-23.8c0-56.869-46.05-103.133-102.654-103.133
		c-56.607,0-102.655,46.265-102.655,103.133v23.8H64.07c-25.036,0-45.406,20.463-45.406,45.617V565.63
		c0,25.153,20.37,45.617,45.406,45.617h414.57c25.035,0,45.405-20.464,45.405-45.617V276.063
		C524.046,250.909,503.676,230.446,478.639,230.446z M271.905,404.982c30.228,0.299,54.727,25.095,54.727,55.53
		c0,23.893-15.1,44.297-36.213,52.117c-1.954,0.725-3.271,2.568-3.271,4.66v6.242c0,8.543-6.535,15.895-15.03,16.298
		c-9.069,0.429-16.556-6.834-16.556-15.849v-6.69c0-2.093-1.318-3.938-3.273-4.662c-20.855-7.724-35.844-27.734-36.203-51.254
		c-0.133-8.745,6.719-16.526,15.423-16.724c8.889-0.202,16.158,6.979,16.158,15.861c0,14.021,12.127,25.247,26.396,23.65
		c10.868-1.22,19.619-10.011,20.831-20.929c1.593-14.337-9.584-26.521-23.537-26.521c-30.48,0-55.277-24.913-55.277-55.534
		c0-23.891,15.1-44.295,36.21-52.115c1.955-0.724,3.273-2.569,3.273-4.66v-6.241c0-8.545,6.536-15.896,15.03-16.297
		c9.069-0.428,16.557,6.832,16.557,15.849v6.69c0,2.093,1.318,3.936,3.271,4.662c20.857,7.723,35.848,27.735,36.203,51.255
		c0.135,8.744-6.72,16.525-15.422,16.724c-8.89,0.2-16.155-6.979-16.155-15.864c0-13.123-10.629-23.8-23.689-23.8
		c-13.12,0-23.782,10.769-23.689,23.972C247.758,394.523,258.791,404.854,271.905,404.982L271.905,404.982z M342.425,230.446
		h-142.14v-23.8c0-39.372,31.881-71.4,71.07-71.4c39.188,0,71.068,32.029,71.068,71.4L342.425,230.446L342.425,230.446z"/>
</g>
<text transform="matrix(1.1167 0 0 1 667.1296 666.1182)" fill="#002A4C" font-family="'CenturySchoolbook'" font-size="801.1758">J</text>
<text transform="matrix(1.1167 0 0 1 667.1296 666.1182)" fill="none" stroke="#002A4C" stroke-width="16" stroke-miterlimit="10" font-family="'CenturySchoolbook'" font-size="801.1758">J</text>
<text transform="matrix(0.9988 0 0 1 1095.5564 556.376)" fill="#002A4C" font-family="'CenturySchoolbook'" font-size="592.0792">case</text>
<text transform="matrix(0.9988 0 0 1 1095.5564 556.376)" fill="none" stroke="#002A4C" stroke-width="15" stroke-miterlimit="10" font-family="'CenturySchoolbook'" font-size="592.0792">case</text>
</svg>
